<?xml version="1.0" encoding="UTF-8"?>
<svg xmlns="http://www.w3.org/2000/svg" width="1024" height="1024" viewBox="0 0 1024 1024">
  <defs>
    <linearGradient id="bgGrad" x1="0%" y1="0%" x2="0%" y2="100%">
      <stop offset="0%"   stop-color="#FB923C"/>
      <stop offset="100%" stop-color="#EA580C"/>
    </linearGradient>
    <radialGradient id="glow" cx="50%" cy="100%" r="80%">
      <stop offset="0%"  stop-color="#000" stop-opacity="0.18"/>
      <stop offset="60%" stop-color="#000" stop-opacity="0"/>
    </radialGradient>
  </defs>

  <rect width="1024" height="1024" fill="url(#bgGrad)"/>
  <rect width="1024" height="1024" fill="url(#glow)"/>

  <!-- Shield -->
  <path d="
    M 512 168
    C 380 168, 268 200, 200 232
    L 200 532
    C 200 712, 332 838, 512 904
    C 692 838, 824 712, 824 532
    L 824 232
    C 756 200, 644 168, 512 168
    Z
  " fill="#0A0A0A"/>

  <!-- Subtle shield highlight (inner top edge) — adds dimension -->
  <path d="
    M 512 168
    C 380 168, 268 200, 200 232
    L 200 280
    C 268 248, 380 216, 512 216
    C 644 216, 756 248, 824 280
    L 824 232
    C 756 200, 644 168, 512 168
    Z
  " fill="#1C1917"/>

  <!-- Bold checkmark, white, rounded -->
  <path d="M 340 530 L 460 650 L 700 410"
    fill="none"
    stroke="#FFFFFF"
    stroke-width="84"
    stroke-linecap="round"
    stroke-linejoin="round"/>
</svg>
